<svg width="563" height="88" class="js-calendar-graph-svg">
  <g transform="translate(16, 20)">
      <g transform="translate(0, 0)">
          <rect class="day" width="8" height="8" x="11" y="0" fill="#c6e48b" data-count="3" data-date="2013-12-29"></rect>
          <rect class="day" width="8" height="8" x="11" y="10" fill="#c6e48b" data-count="2" data-date="2013-12-30"></rect>
          <rect class="day" width="8" height="8" x="11" y="20" fill="#ebedf0" data-count="0" data-date="2013-12-31"></rect>
          <rect class="day" width="8" height="8" x="11" y="30" fill="#c6e48b" data-count="1" data-date="2014-01-01"></rect>
          <rect class="day" width="8" height="8" x="11" y="40" fill="#c6e48b" data-count="1" data-date="2014-01-02"></rect>
          <rect class="day" width="8" height="8" x="11" y="50" fill="#c6e48b" data-count="6" data-date="2014-01-03"></rect>
          <rect class="day" width="8" height="8" x="11" y="60" fill="#c6e48b" data-count="4" data-date="2014-01-04"></rect>
      </g>
      <g transform="translate(11, 0)">
          <rect class="day" width="8" height="8" x="10" y="0" fill="#ebedf0" data-count="0" data-date="2014-01-05"></rect>
          <rect class="day" width="8" height="8" x="10" y="10" fill="#c6e48b" data-count="2" data-date="2014-01-06"></rect>
          <rect class="day" width="8" height="8" x="10" y="20" fill="#c6e48b" data-count="5" data-date="2014-01-07"></rect>
          <rect class="day" width="8" height="8" x="10" y="30" fill="#c6e48b" data-count="4" data-date="2014-01-08"></rect>
          <rect class="day" width="8" height="8" x="10" y="40" fill="#c6e48b" data-count="1" data-date="2014-01-09"></rect>
          <rect class="day" width="8" height="8" x="10" y="50" fill="#c6e48b" data-count="3" data-date="2014-01-10"></rect>
          <rect class="day" width="8" height="8" x="10" y="60" fill="#ebedf0" data-count="0" data-date="2014-01-11"></rect>
      </g>
      <g transform="translate(22, 0)">
          <rect class="day" width="8" height="8" x="9" y="0" fill="#ebedf0" data-count="0" data-date="2014-01-12"></rect>
          <rect class="day" width="8" height="8" x="9" y="10" fill="#ebedf0" data-count="0" data-date="2014-01-13"></rect>
          <rect class="day" width="8" height="8" x="9" y="20" fill="#ebedf0" data-count="0" data-date="2014-01-14"></rect>
          <rect class="day" width="8" height="8" x="9" y="30" fill="#c6e48b" data-count="1" data-date="2014-01-15"></rect>
          <rect class="day" width="8" height="8" x="9" y="40" fill="#ebedf0" data-count="0" data-date="2014-01-16"></rect>
          <rect class="day" width="8" height="8" x="9" y="50" fill="#ebedf0" data-count="0" data-date="2014-01-17"></rect>
          <rect class="day" width="8" height="8" x="9" y="60" fill="#ebedf0" data-count="0" data-date="2014-01-18"></rect>
      </g>
      <g transform="translate(33, 0)">
          <rect class="day" width="8" height="8" x="8" y="0" fill="#c6e48b" data-count="1" data-date="2014-01-19"></rect>
          <rect class="day" width="8" height="8" x="8" y="10" fill="#c6e48b" data-count="2" data-date="2014-01-20"></rect>
          <rect class="day" width="8" height="8" x="8" y="20" fill="#c6e48b" data-count="6" data-date="2014-01-21"></rect>
          <rect class="day" width="8" height="8" x="8" y="30" fill="#ebedf0" data-count="0" data-date="2014-01-22"></rect>
          <rect class="day" width="8" height="8" x="8" y="40" fill="#c6e48b" data-count="5" data-date="2014-01-23"></rect>
          <rect class="day" width="8" height="8" x="8" y="50" fill="#c6e48b" data-count="3" data-date="2014-01-24"></rect>
          <rect class="day" width="8" height="8" x="8" y="60" fill="#ebedf0" data-count="0" data-date="2014-01-25"></rect>
      </g>
      <g transform="translate(44, 0)">
          <rect class="day" width="8" height="8" x="7" y="0" fill="#c6e48b" data-count="2" data-date="2014-01-26"></rect>
          <rect class="day" width="8" height="8" x="7" y="10" fill="#c6e48b" data-count="5" data-date="2014-01-27"></rect>
          <rect class="day" width="8" height="8" x="7" y="20" fill="#c6e48b" data-count="2" data-date="2014-01-28"></rect>
          <rect class="day" width="8" height="8" x="7" y="30" fill="#c6e48b" data-count="2" data-date="2014-01-29"></rect>
          <rect class="day" width="8" height="8" x="7" y="40" fill="#c6e48b" data-count="2" data-date="2014-01-30"></rect>
          <rect class="day" width="8" height="8" x="7" y="50" fill="#c6e48b" data-count="1" data-date="2014-01-31"></rect>
          <rect class="day" width="8" height="8" x="7" y="60" fill="#c6e48b" data-count="1" data-date="2014-02-01"></rect>
      </g>
      <g transform="translate(55, 0)">
          <rect class="day" width="8" height="8" x="6" y="0" fill="#c6e48b" data-count="2" data-date="2014-02-02"></rect>
          <rect class="day" width="8" height="8" x="6" y="10" fill="#c6e48b" data-count="6" data-date="2014-02-03"></rect>
          <rect class="day" width="8" height="8" x="6" y="20" fill="#c6e48b" data-count="9" data-date="2014-02-04"></rect>
          <rect class="day" width="8" height="8" x="6" y="30" fill="#c6e48b" data-count="2" data-date="2014-02-05"></rect>
          <rect class="day" width="8" height="8" x="6" y="40" fill="#ebedf0" data-count="0" data-date="2014-02-06"></rect>
          <rect class="day" width="8" height="8" x="6" y="50" fill="#c6e48b" data-count="3" data-date="2014-02-07"></rect>
          <rect class="day" width="8" height="8" x="6" y="60" fill="#ebedf0" data-count="0" data-date="2014-02-08"></rect>
      </g>
      <g transform="translate(66, 0)">
          <rect class="day" width="8" height="8" x="5" y="0" fill="#c6e48b" data-count="1" data-date="2014-02-09"></rect>
          <rect class="day" width="8" height="8" x="5" y="10" fill="#c6e48b" data-count="7" data-date="2014-02-10"></rect>
          <rect class="day" width="8" height="8" x="5" y="20" fill="#c6e48b" data-count="2" data-date="2014-02-11"></rect>
          <rect class="day" width="8" height="8" x="5" y="30" fill="#c6e48b" data-count="2" data-date="2014-02-12"></rect>
          <rect class="day" width="8" height="8" x="5" y="40" fill="#c6e48b" data-count="4" data-date="2014-02-13"></rect>
          <rect class="day" width="8" height="8" x="5" y="50" fill="#c6e48b" data-count="6" data-date="2014-02-14"></rect>
          <rect class="day" width="8" height="8" x="5" y="60" fill="#c6e48b" data-count="2" data-date="2014-02-15"></rect>
      </g>
      <g transform="translate(77, 0)">
          <rect class="day" width="8" height="8" x="4" y="0" fill="#ebedf0" data-count="0" data-date="2014-02-16"></rect>
          <rect class="day" width="8" height="8" x="4" y="10" fill="#c6e48b" data-count="2" data-date="2014-02-17"></rect>
          <rect class="day" width="8" height="8" x="4" y="20" fill="#c6e48b" data-count="8" data-date="2014-02-18"></rect>
          <rect class="day" width="8" height="8" x="4" y="30" fill="#c6e48b" data-count="7" data-date="2014-02-19"></rect>
          <rect class="day" width="8" height="8" x="4" y="40" fill="#ebedf0" data-count="0" data-date="2014-02-20"></rect>
          <rect class="day" width="8" height="8" x="4" y="50" fill="#c6e48b" data-count="1" data-date="2014-02-21"></rect>
          <rect class="day" width="8" height="8" x="4" y="60" fill="#ebedf0" data-count="0" data-date="2014-02-22"></rect>
      </g>
      <g transform="translate(88, 0)">
          <rect class="day" width="8" height="8" x="3" y="0" fill="#ebedf0" data-count="0" data-date="2014-02-23"></rect>
          <rect class="day" width="8" height="8" x="3" y="10" fill="#c6e48b" data-count="2" data-date="2014-02-24"></rect>
          <rect class="day" width="8" height="8" x="3" y="20" fill="#c6e48b" data-count="2" data-date="2014-02-25"></rect>
          <rect class="day" width="8" height="8" x="3" y="30" fill="#c6e48b" data-count="6" data-date="2014-02-26"></rect>
          <rect class="day" width="8" height="8" x="3" y="40" fill="#7bc96f" data-count="37" data-date="2014-02-27"></rect>
          <rect class="day" width="8" height="8" x="3" y="50" fill="#ebedf0" data-count="0" data-date="2014-02-28"></rect>
          <rect class="day" width="8" height="8" x="3" y="60" fill="#ebedf0" data-count="0" data-date="2014-03-01"></rect>
      </g>
      <g transform="translate(99, 0)">
          <rect class="day" width="8" height="8" x="2" y="0" fill="#7bc96f" data-count="34" data-date="2014-03-02"></rect>
          <rect class="day" width="8" height="8" x="2" y="10" fill="#7bc96f" data-count="34" data-date="2014-03-03"></rect>
          <rect class="day" width="8" height="8" x="2" y="20" fill="#c6e48b" data-count="6" data-date="2014-03-04"></rect>
          <rect class="day" width="8" height="8" x="2" y="30" fill="#c6e48b" data-count="2" data-date="2014-03-05"></rect>
          <rect class="day" width="8" height="8" x="2" y="40" fill="#c6e48b" data-count="6" data-date="2014-03-06"></rect>
          <rect class="day" width="8" height="8" x="2" y="50" fill="#ebedf0" data-count="0" data-date="2014-03-07"></rect>
          <rect class="day" width="8" height="8" x="2" y="60" fill="#ebedf0" data-count="0" data-date="2014-03-08"></rect>
      </g>
      <g transform="translate(110, 0)">
          <rect class="day" width="8" height="8" x="1" y="0" fill="#ebedf0" data-count="0" data-date="2014-03-09"></rect>
          <rect class="day" width="8" height="8" x="1" y="10" fill="#ebedf0" data-count="0" data-date="2014-03-10"></rect>
          <rect class="day" width="8" height="8" x="1" y="20" fill="#c6e48b" data-count="6" data-date="2014-03-11"></rect>
          <rect class="day" width="8" height="8" x="1" y="30" fill="#c6e48b" data-count="4" data-date="2014-03-12"></rect>
          <rect class="day" width="8" height="8" x="1" y="40" fill="#c6e48b" data-count="4" data-date="2014-03-13"></rect>
          <rect class="day" width="8" height="8" x="1" y="50" fill="#7bc96f" data-count="25" data-date="2014-03-14"></rect>
          <rect class="day" width="8" height="8" x="1" y="60" fill="#ebedf0" data-count="0" data-date="2014-03-15"></rect>
      </g>
      <g transform="translate(121, 0)">
          <rect class="day" width="8" height="8" x="0" y="0" fill="#c6e48b" data-count="1" data-date="2014-03-16"></rect>
          <rect class="day" width="8" height="8" x="0" y="10" fill="#c6e48b" data-count="4" data-date="2014-03-17"></rect>
          <rect class="day" width="8" height="8" x="0" y="20" fill="#c6e48b" data-count="7" data-date="2014-03-18"></rect>
          <rect class="day" width="8" height="8" x="0" y="30" fill="#c6e48b" data-count="4" data-date="2014-03-19"></rect>
          <rect class="day" width="8" height="8" x="0" y="40" fill="#c6e48b" data-count="7" data-date="2014-03-20"></rect>
          <rect class="day" width="8" height="8" x="0" y="50" fill="#c6e48b" data-count="3" data-date="2014-03-21"></rect>
          <rect class="day" width="8" height="8" x="0" y="60" fill="#ebedf0" data-count="0" data-date="2014-03-22"></rect>
      </g>
      <g transform="translate(132, 0)">
          <rect class="day" width="8" height="8" x="-1" y="0" fill="#ebedf0" data-count="0" data-date="2014-03-23"></rect>
          <rect class="day" width="8" height="8" x="-1" y="10" fill="#c6e48b" data-count="2" data-date="2014-03-24"></rect>
          <rect class="day" width="8" height="8" x="-1" y="20" fill="#c6e48b" data-count="3" data-date="2014-03-25"></rect>
          <rect class="day" width="8" height="8" x="-1" y="30" fill="#c6e48b" data-count="5" data-date="2014-03-26"></rect>
          <rect class="day" width="8" height="8" x="-1" y="40" fill="#c6e48b" data-count="1" data-date="2014-03-27"></rect>
          <rect class="day" width="8" height="8" x="-1" y="50" fill="#c6e48b" data-count="2" data-date="2014-03-28"></rect>
          <rect class="day" width="8" height="8" x="-1" y="60" fill="#ebedf0" data-count="0" data-date="2014-03-29"></rect>
      </g>
      <g transform="translate(143, 0)">
          <rect class="day" width="8" height="8" x="-2" y="0" fill="#ebedf0" data-count="0" data-date="2014-03-30"></rect>
          <rect class="day" width="8" height="8" x="-2" y="10" fill="#c6e48b" data-count="4" data-date="2014-03-31"></rect>
          <rect class="day" width="8" height="8" x="-2" y="20" fill="#c6e48b" data-count="3" data-date="2014-04-01"></rect>
          <rect class="day" width="8" height="8" x="-2" y="30" fill="#c6e48b" data-count="3" data-date="2014-04-02"></rect>
          <rect class="day" width="8" height="8" x="-2" y="40" fill="#c6e48b" data-count="3" data-date="2014-04-03"></rect>
          <rect class="day" width="8" height="8" x="-2" y="50" fill="#c6e48b" data-count="2" data-date="2014-04-04"></rect>
          <rect class="day" width="8" height="8" x="-2" y="60" fill="#ebedf0" data-count="0" data-date="2014-04-05"></rect>
      </g>
      <g transform="translate(154, 0)">
          <rect class="day" width="8" height="8" x="-3" y="0" fill="#ebedf0" data-count="0" data-date="2014-04-06"></rect>
          <rect class="day" width="8" height="8" x="-3" y="10" fill="#c6e48b" data-count="1" data-date="2014-04-07"></rect>
          <rect class="day" width="8" height="8" x="-3" y="20" fill="#c6e48b" data-count="2" data-date="2014-04-08"></rect>
          <rect class="day" width="8" height="8" x="-3" y="30" fill="#ebedf0" data-count="0" data-date="2014-04-09"></rect>
          <rect class="day" width="8" height="8" x="-3" y="40" fill="#c6e48b" data-count="2" data-date="2014-04-10"></rect>
          <rect class="day" width="8" height="8" x="-3" y="50" fill="#c6e48b" data-count="1" data-date="2014-04-11"></rect>
          <rect class="day" width="8" height="8" x="-3" y="60" fill="#ebedf0" data-count="0" data-date="2014-04-12"></rect>
      </g>
      <g transform="translate(165, 0)">
          <rect class="day" width="8" height="8" x="-4" y="0" fill="#c6e48b" data-count="3" data-date="2014-04-13"></rect>
          <rect class="day" width="8" height="8" x="-4" y="10" fill="#ebedf0" data-count="0" data-date="2014-04-14"></rect>
          <rect class="day" width="8" height="8" x="-4" y="20" fill="#c6e48b" data-count="1" data-date="2014-04-15"></rect>
          <rect class="day" width="8" height="8" x="-4" y="30" fill="#c6e48b" data-count="1" data-date="2014-04-16"></rect>
          <rect class="day" width="8" height="8" x="-4" y="40" fill="#c6e48b" data-count="4" data-date="2014-04-17"></rect>
          <rect class="day" width="8" height="8" x="-4" y="50" fill="#c6e48b" data-count="6" data-date="2014-04-18"></rect>
          <rect class="day" width="8" height="8" x="-4" y="60" fill="#c6e48b" data-count="3" data-date="2014-04-19"></rect>
      </g>
      <g transform="translate(176, 0)">
          <rect class="day" width="8" height="8" x="-5" y="0" fill="#c6e48b" data-count="2" data-date="2014-04-20"></rect>
          <rect class="day" width="8" height="8" x="-5" y="10" fill="#c6e48b" data-count="7" data-date="2014-04-21"></rect>
          <rect class="day" width="8" height="8" x="-5" y="20" fill="#ebedf0" data-count="0" data-date="2014-04-22"></rect>
          <rect class="day" width="8" height="8" x="-5" y="30" fill="#ebedf0" data-count="0" data-date="2014-04-23"></rect>
          <rect class="day" width="8" height="8" x="-5" y="40" fill="#c6e48b" data-count="1" data-date="2014-04-24"></rect>
          <rect class="day" width="8" height="8" x="-5" y="50" fill="#c6e48b" data-count="1" data-date="2014-04-25"></rect>
          <rect class="day" width="8" height="8" x="-5" y="60" fill="#ebedf0" data-count="0" data-date="2014-04-26"></rect>
      </g>
      <g transform="translate(187, 0)">
          <rect class="day" width="8" height="8" x="-6" y="0" fill="#ebedf0" data-count="0" data-date="2014-04-27"></rect>
          <rect class="day" width="8" height="8" x="-6" y="10" fill="#ebedf0" data-count="0" data-date="2014-04-28"></rect>
          <rect class="day" width="8" height="8" x="-6" y="20" fill="#ebedf0" data-count="0" data-date="2014-04-29"></rect>
          <rect class="day" width="8" height="8" x="-6" y="30" fill="#c6e48b" data-count="1" data-date="2014-04-30"></rect>
          <rect class="day" width="8" height="8" x="-6" y="40" fill="#ebedf0" data-count="0" data-date="2014-05-01"></rect>
          <rect class="day" width="8" height="8" x="-6" y="50" fill="#ebedf0" data-count="0" data-date="2014-05-02"></rect>
          <rect class="day" width="8" height="8" x="-6" y="60" fill="#ebedf0" data-count="0" data-date="2014-05-03"></rect>
      </g>
      <g transform="translate(198, 0)">
          <rect class="day" width="8" height="8" x="-7" y="0" fill="#c6e48b" data-count="1" data-date="2014-05-04"></rect>
          <rect class="day" width="8" height="8" x="-7" y="10" fill="#c6e48b" data-count="2" data-date="2014-05-05"></rect>
          <rect class="day" width="8" height="8" x="-7" y="20" fill="#ebedf0" data-count="0" data-date="2014-05-06"></rect>
          <rect class="day" width="8" height="8" x="-7" y="30" fill="#c6e48b" data-count="2" data-date="2014-05-07"></rect>
          <rect class="day" width="8" height="8" x="-7" y="40" fill="#ebedf0" data-count="0" data-date="2014-05-08"></rect>
          <rect class="day" width="8" height="8" x="-7" y="50" fill="#ebedf0" data-count="0" data-date="2014-05-09"></rect>
          <rect class="day" width="8" height="8" x="-7" y="60" fill="#c6e48b" data-count="1" data-date="2014-05-10"></rect>
      </g>
      <g transform="translate(209, 0)">
          <rect class="day" width="8" height="8" x="-8" y="0" fill="#ebedf0" data-count="0" data-date="2014-05-11"></rect>
          <rect class="day" width="8" height="8" x="-8" y="10" fill="#c6e48b" data-count="5" data-date="2014-05-12"></rect>
          <rect class="day" width="8" height="8" x="-8" y="20" fill="#c6e48b" data-count="1" data-date="2014-05-13"></rect>
          <rect class="day" width="8" height="8" x="-8" y="30" fill="#c6e48b" data-count="1" data-date="2014-05-14"></rect>
          <rect class="day" width="8" height="8" x="-8" y="40" fill="#c6e48b" data-count="1" data-date="2014-05-15"></rect>
          <rect class="day" width="8" height="8" x="-8" y="50" fill="#c6e48b" data-count="1" data-date="2014-05-16"></rect>
          <rect class="day" width="8" height="8" x="-8" y="60" fill="#ebedf0" data-count="0" data-date="2014-05-17"></rect>
      </g>
      <g transform="translate(220, 0)">
          <rect class="day" width="8" height="8" x="-9" y="0" fill="#c6e48b" data-count="2" data-date="2014-05-18"></rect>
          <rect class="day" width="8" height="8" x="-9" y="10" fill="#c6e48b" data-count="2" data-date="2014-05-19"></rect>
          <rect class="day" width="8" height="8" x="-9" y="20" fill="#c6e48b" data-count="13" data-date="2014-05-20"></rect>
          <rect class="day" width="8" height="8" x="-9" y="30" fill="#c6e48b" data-count="4" data-date="2014-05-21"></rect>
          <rect class="day" width="8" height="8" x="-9" y="40" fill="#c6e48b" data-count="5" data-date="2014-05-22"></rect>
          <rect class="day" width="8" height="8" x="-9" y="50" fill="#c6e48b" data-count="20" data-date="2014-05-23"></rect>
          <rect class="day" width="8" height="8" x="-9" y="60" fill="#c6e48b" data-count="2" data-date="2014-05-24"></rect>
      </g>
      <g transform="translate(231, 0)">
          <rect class="day" width="8" height="8" x="-10" y="0" fill="#ebedf0" data-count="0" data-date="2014-05-25"></rect>
          <rect class="day" width="8" height="8" x="-10" y="10" fill="#c6e48b" data-count="5" data-date="2014-05-26"></rect>
          <rect class="day" width="8" height="8" x="-10" y="20" fill="#c6e48b" data-count="5" data-date="2014-05-27"></rect>
          <rect class="day" width="8" height="8" x="-10" y="30" fill="#c6e48b" data-count="2" data-date="2014-05-28"></rect>
          <rect class="day" width="8" height="8" x="-10" y="40" fill="#c6e48b" data-count="4" data-date="2014-05-29"></rect>
          <rect class="day" width="8" height="8" x="-10" y="50" fill="#c6e48b" data-count="2" data-date="2014-05-30"></rect>
          <rect class="day" width="8" height="8" x="-10" y="60" fill="#c6e48b" data-count="1" data-date="2014-05-31"></rect>
      </g>
      <g transform="translate(242, 0)">
          <rect class="day" width="8" height="8" x="-11" y="0" fill="#c6e48b" data-count="1" data-date="2014-06-01"></rect>
          <rect class="day" width="8" height="8" x="-11" y="10" fill="#c6e48b" data-count="1" data-date="2014-06-02"></rect>
          <rect class="day" width="8" height="8" x="-11" y="20" fill="#ebedf0" data-count="0" data-date="2014-06-03"></rect>
          <rect class="day" width="8" height="8" x="-11" y="30" fill="#c6e48b" data-count="1" data-date="2014-06-04"></rect>
          <rect class="day" width="8" height="8" x="-11" y="40" fill="#ebedf0" data-count="0" data-date="2014-06-05"></rect>
          <rect class="day" width="8" height="8" x="-11" y="50" fill="#ebedf0" data-count="0" data-date="2014-06-06"></rect>
          <rect class="day" width="8" height="8" x="-11" y="60" fill="#c6e48b" data-count="1" data-date="2014-06-07"></rect>
      </g>
      <g transform="translate(253, 0)">
          <rect class="day" width="8" height="8" x="-12" y="0" fill="#ebedf0" data-count="0" data-date="2014-06-08"></rect>
          <rect class="day" width="8" height="8" x="-12" y="10" fill="#ebedf0" data-count="0" data-date="2014-06-09"></rect>
          <rect class="day" width="8" height="8" x="-12" y="20" fill="#c6e48b" data-count="2" data-date="2014-06-10"></rect>
          <rect class="day" width="8" height="8" x="-12" y="30" fill="#c6e48b" data-count="6" data-date="2014-06-11"></rect>
          <rect class="day" width="8" height="8" x="-12" y="40" fill="#c6e48b" data-count="8" data-date="2014-06-12"></rect>
          <rect class="day" width="8" height="8" x="-12" y="50" fill="#ebedf0" data-count="0" data-date="2014-06-13"></rect>
          <rect class="day" width="8" height="8" x="-12" y="60" fill="#ebedf0" data-count="0" data-date="2014-06-14"></rect>
      </g>
      <g transform="translate(264, 0)">
          <rect class="day" width="8" height="8" x="-13" y="0" fill="#ebedf0" data-count="0" data-date="2014-06-15"></rect>
          <rect class="day" width="8" height="8" x="-13" y="10" fill="#c6e48b" data-count="7" data-date="2014-06-16"></rect>
          <rect class="day" width="8" height="8" x="-13" y="20" fill="#c6e48b" data-count="3" data-date="2014-06-17"></rect>
          <rect class="day" width="8" height="8" x="-13" y="30" fill="#ebedf0" data-count="0" data-date="2014-06-18"></rect>
          <rect class="day" width="8" height="8" x="-13" y="40" fill="#ebedf0" data-count="0" data-date="2014-06-19"></rect>
          <rect class="day" width="8" height="8" x="-13" y="50" fill="#ebedf0" data-count="0" data-date="2014-06-20"></rect>
          <rect class="day" width="8" height="8" x="-13" y="60" fill="#ebedf0" data-count="0" data-date="2014-06-21"></rect>
      </g>
      <g transform="translate(275, 0)">
          <rect class="day" width="8" height="8" x="-14" y="0" fill="#ebedf0" data-count="0" data-date="2014-06-22"></rect>
          <rect class="day" width="8" height="8" x="-14" y="10" fill="#c6e48b" data-count="5" data-date="2014-06-23"></rect>
          <rect class="day" width="8" height="8" x="-14" y="20" fill="#c6e48b" data-count="1" data-date="2014-06-24"></rect>
          <rect class="day" width="8" height="8" x="-14" y="30" fill="#c6e48b" data-count="1" data-date="2014-06-25"></rect>
          <rect class="day" width="8" height="8" x="-14" y="40" fill="#ebedf0" data-count="0" data-date="2014-06-26"></rect>
          <rect class="day" width="8" height="8" x="-14" y="50" fill="#ebedf0" data-count="0" data-date="2014-06-27"></rect>
          <rect class="day" width="8" height="8" x="-14" y="60" fill="#ebedf0" data-count="0" data-date="2014-06-28"></rect>
      </g>
      <g transform="translate(286, 0)">
          <rect class="day" width="8" height="8" x="-15" y="0" fill="#c6e48b" data-count="1" data-date="2014-06-29"></rect>
          <rect class="day" width="8" height="8" x="-15" y="10" fill="#239a3b" data-count="50" data-date="2014-06-30"></rect>
          <rect class="day" width="8" height="8" x="-15" y="20" fill="#c6e48b" data-count="2" data-date="2014-07-01"></rect>
          <rect class="day" width="8" height="8" x="-15" y="30" fill="#c6e48b" data-count="6" data-date="2014-07-02"></rect>
          <rect class="day" width="8" height="8" x="-15" y="40" fill="#c6e48b" data-count="17" data-date="2014-07-03"></rect>
          <rect class="day" width="8" height="8" x="-15" y="50" fill="#ebedf0" data-count="0" data-date="2014-07-04"></rect>
          <rect class="day" width="8" height="8" x="-15" y="60" fill="#ebedf0" data-count="0" data-date="2014-07-05"></rect>
      </g>
      <g transform="translate(297, 0)">
          <rect class="day" width="8" height="8" x="-16" y="0" fill="#ebedf0" data-count="0" data-date="2014-07-06"></rect>
          <rect class="day" width="8" height="8" x="-16" y="10" fill="#ebedf0" data-count="0" data-date="2014-07-07"></rect>
          <rect class="day" width="8" height="8" x="-16" y="20" fill="#c6e48b" data-count="4" data-date="2014-07-08"></rect>
          <rect class="day" width="8" height="8" x="-16" y="30" fill="#c6e48b" data-count="6" data-date="2014-07-09"></rect>
          <rect class="day" width="8" height="8" x="-16" y="40" fill="#c6e48b" data-count="7" data-date="2014-07-10"></rect>
          <rect class="day" width="8" height="8" x="-16" y="50" fill="#c6e48b" data-count="1" data-date="2014-07-11"></rect>
          <rect class="day" width="8" height="8" x="-16" y="60" fill="#ebedf0" data-count="0" data-date="2014-07-12"></rect>
      </g>
      <g transform="translate(308, 0)">
          <rect class="day" width="8" height="8" x="-17" y="0" fill="#ebedf0" data-count="0" data-date="2014-07-13"></rect>
          <rect class="day" width="8" height="8" x="-17" y="10" fill="#c6e48b" data-count="4" data-date="2014-07-14"></rect>
          <rect class="day" width="8" height="8" x="-17" y="20" fill="#c6e48b" data-count="5" data-date="2014-07-15"></rect>
          <rect class="day" width="8" height="8" x="-17" y="30" fill="#c6e48b" data-count="2" data-date="2014-07-16"></rect>
          <rect class="day" width="8" height="8" x="-17" y="40" fill="#c6e48b" data-count="7" data-date="2014-07-17"></rect>
          <rect class="day" width="8" height="8" x="-17" y="50" fill="#c6e48b" data-count="1" data-date="2014-07-18"></rect>
          <rect class="day" width="8" height="8" x="-17" y="60" fill="#ebedf0" data-count="0" data-date="2014-07-19"></rect>
      </g>
      <g transform="translate(319, 0)">
          <rect class="day" width="8" height="8" x="-18" y="0" fill="#ebedf0" data-count="0" data-date="2014-07-20"></rect>
          <rect class="day" width="8" height="8" x="-18" y="10" fill="#c6e48b" data-count="4" data-date="2014-07-21"></rect>
          <rect class="day" width="8" height="8" x="-18" y="20" fill="#c6e48b" data-count="2" data-date="2014-07-22"></rect>
          <rect class="day" width="8" height="8" x="-18" y="30" fill="#c6e48b" data-count="3" data-date="2014-07-23"></rect>
          <rect class="day" width="8" height="8" x="-18" y="40" fill="#c6e48b" data-count="3" data-date="2014-07-24"></rect>
          <rect class="day" width="8" height="8" x="-18" y="50" fill="#c6e48b" data-count="1" data-date="2014-07-25"></rect>
          <rect class="day" width="8" height="8" x="-18" y="60" fill="#ebedf0" data-count="0" data-date="2014-07-26"></rect>
      </g>
      <g transform="translate(330, 0)">
          <rect class="day" width="8" height="8" x="-19" y="0" fill="#ebedf0" data-count="0" data-date="2014-07-27"></rect>
          <rect class="day" width="8" height="8" x="-19" y="10" fill="#ebedf0" data-count="0" data-date="2014-07-28"></rect>
          <rect class="day" width="8" height="8" x="-19" y="20" fill="#c6e48b" data-count="2" data-date="2014-07-29"></rect>
          <rect class="day" width="8" height="8" x="-19" y="30" fill="#c6e48b" data-count="1" data-date="2014-07-30"></rect>
          <rect class="day" width="8" height="8" x="-19" y="40" fill="#c6e48b" data-count="2" data-date="2014-07-31"></rect>
          <rect class="day" width="8" height="8" x="-19" y="50" fill="#ebedf0" data-count="0" data-date="2014-08-01"></rect>
          <rect class="day" width="8" height="8" x="-19" y="60" fill="#ebedf0" data-count="0" data-date="2014-08-02"></rect>
      </g>
      <g transform="translate(341, 0)">
          <rect class="day" width="8" height="8" x="-20" y="0" fill="#ebedf0" data-count="0" data-date="2014-08-03"></rect>
          <rect class="day" width="8" height="8" x="-20" y="10" fill="#ebedf0" data-count="0" data-date="2014-08-04"></rect>
          <rect class="day" width="8" height="8" x="-20" y="20" fill="#ebedf0" data-count="0" data-date="2014-08-05"></rect>
          <rect class="day" width="8" height="8" x="-20" y="30" fill="#ebedf0" data-count="0" data-date="2014-08-06"></rect>
          <rect class="day" width="8" height="8" x="-20" y="40" fill="#ebedf0" data-count="0" data-date="2014-08-07"></rect>
          <rect class="day" width="8" height="8" x="-20" y="50" fill="#ebedf0" data-count="0" data-date="2014-08-08"></rect>
          <rect class="day" width="8" height="8" x="-20" y="60" fill="#c6e48b" data-count="3" data-date="2014-08-09"></rect>
      </g>
      <g transform="translate(352, 0)">
          <rect class="day" width="8" height="8" x="-21" y="0" fill="#ebedf0" data-count="0" data-date="2014-08-10"></rect>
          <rect class="day" width="8" height="8" x="-21" y="10" fill="#c6e48b" data-count="6" data-date="2014-08-11"></rect>
          <rect class="day" width="8" height="8" x="-21" y="20" fill="#c6e48b" data-count="7" data-date="2014-08-12"></rect>
          <rect class="day" width="8" height="8" x="-21" y="30" fill="#c6e48b" data-count="12" data-date="2014-08-13"></rect>
          <rect class="day" width="8" height="8" x="-21" y="40" fill="#c6e48b" data-count="6" data-date="2014-08-14"></rect>
          <rect class="day" width="8" height="8" x="-21" y="50" fill="#c6e48b" data-count="1" data-date="2014-08-15"></rect>
          <rect class="day" width="8" height="8" x="-21" y="60" fill="#c6e48b" data-count="2" data-date="2014-08-16"></rect>
      </g>
      <g transform="translate(363, 0)">
          <rect class="day" width="8" height="8" x="-22" y="0" fill="#ebedf0" data-count="0" data-date="2014-08-17"></rect>
          <rect class="day" width="8" height="8" x="-22" y="10" fill="#c6e48b" data-count="6" data-date="2014-08-18"></rect>
          <rect class="day" width="8" height="8" x="-22" y="20" fill="#ebedf0" data-count="0" data-date="2014-08-19"></rect>
          <rect class="day" width="8" height="8" x="-22" y="30" fill="#ebedf0" data-count="0" data-date="2014-08-20"></rect>
          <rect class="day" width="8" height="8" x="-22" y="40" fill="#ebedf0" data-count="0" data-date="2014-08-21"></rect>
          <rect class="day" width="8" height="8" x="-22" y="50" fill="#c6e48b" data-count="3" data-date="2014-08-22"></rect>
          <rect class="day" width="8" height="8" x="-22" y="60" fill="#c6e48b" data-count="2" data-date="2014-08-23"></rect>
      </g>
      <g transform="translate(374, 0)">
          <rect class="day" width="8" height="8" x="-23" y="0" fill="#ebedf0" data-count="0" data-date="2014-08-24"></rect>
          <rect class="day" width="8" height="8" x="-23" y="10" fill="#ebedf0" data-count="0" data-date="2014-08-25"></rect>
          <rect class="day" width="8" height="8" x="-23" y="20" fill="#ebedf0" data-count="0" data-date="2014-08-26"></rect>
          <rect class="day" width="8" height="8" x="-23" y="30" fill="#c6e48b" data-count="16" data-date="2014-08-27"></rect>
          <rect class="day" width="8" height="8" x="-23" y="40" fill="#196127" data-count="128" data-date="2014-08-28"></rect>
          <rect class="day" width="8" height="8" x="-23" y="50" fill="#239a3b" data-count="50" data-date="2014-08-29"></rect>
          <rect class="day" width="8" height="8" x="-23" y="60" fill="#c6e48b" data-count="8" data-date="2014-08-30"></rect>
      </g>
      <g transform="translate(385, 0)">
          <rect class="day" width="8" height="8" x="-24" y="0" fill="#ebedf0" data-count="0" data-date="2014-08-31"></rect>
          <rect class="day" width="8" height="8" x="-24" y="10" fill="#c6e48b" data-count="16" data-date="2014-09-01"></rect>
          <rect class="day" width="8" height="8" x="-24" y="20" fill="#c6e48b" data-count="12" data-date="2014-09-02"></rect>
          <rect class="day" width="8" height="8" x="-24" y="30" fill="#c6e48b" data-count="1" data-date="2014-09-03"></rect>
          <rect class="day" width="8" height="8" x="-24" y="40" fill="#ebedf0" data-count="0" data-date="2014-09-04"></rect>
          <rect class="day" width="8" height="8" x="-24" y="50" fill="#c6e48b" data-count="2" data-date="2014-09-05"></rect>
          <rect class="day" width="8" height="8" x="-24" y="60" fill="#ebedf0" data-count="0" data-date="2014-09-06"></rect>
      </g>
      <g transform="translate(396, 0)">
          <rect class="day" width="8" height="8" x="-25" y="0" fill="#c6e48b" data-count="1" data-date="2014-09-07"></rect>
          <rect class="day" width="8" height="8" x="-25" y="10" fill="#c6e48b" data-count="4" data-date="2014-09-08"></rect>
          <rect class="day" width="8" height="8" x="-25" y="20" fill="#c6e48b" data-count="11" data-date="2014-09-09"></rect>
          <rect class="day" width="8" height="8" x="-25" y="30" fill="#ebedf0" data-count="0" data-date="2014-09-10"></rect>
          <rect class="day" width="8" height="8" x="-25" y="40" fill="#ebedf0" data-count="0" data-date="2014-09-11"></rect>
          <rect class="day" width="8" height="8" x="-25" y="50" fill="#ebedf0" data-count="0" data-date="2014-09-12"></rect>
          <rect class="day" width="8" height="8" x="-25" y="60" fill="#c6e48b" data-count="5" data-date="2014-09-13"></rect>
      </g>
      <g transform="translate(407, 0)">
          <rect class="day" width="8" height="8" x="-26" y="0" fill="#c6e48b" data-count="1" data-date="2014-09-14"></rect>
          <rect class="day" width="8" height="8" x="-26" y="10" fill="#c6e48b" data-count="3" data-date="2014-09-15"></rect>
          <rect class="day" width="8" height="8" x="-26" y="20" fill="#c6e48b" data-count="2" data-date="2014-09-16"></rect>
          <rect class="day" width="8" height="8" x="-26" y="30" fill="#c6e48b" data-count="12" data-date="2014-09-17"></rect>
          <rect class="day" width="8" height="8" x="-26" y="40" fill="#c6e48b" data-count="2" data-date="2014-09-18"></rect>
          <rect class="day" width="8" height="8" x="-26" y="50" fill="#ebedf0" data-count="0" data-date="2014-09-19"></rect>
          <rect class="day" width="8" height="8" x="-26" y="60" fill="#ebedf0" data-count="0" data-date="2014-09-20"></rect>
      </g>
      <g transform="translate(418, 0)">
          <rect class="day" width="8" height="8" x="-27" y="0" fill="#ebedf0" data-count="0" data-date="2014-09-21"></rect>
          <rect class="day" width="8" height="8" x="-27" y="10" fill="#c6e48b" data-count="10" data-date="2014-09-22"></rect>
          <rect class="day" width="8" height="8" x="-27" y="20" fill="#c6e48b" data-count="2" data-date="2014-09-23"></rect>
          <rect class="day" width="8" height="8" x="-27" y="30" fill="#c6e48b" data-count="8" data-date="2014-09-24"></rect>
          <rect class="day" width="8" height="8" x="-27" y="40" fill="#c6e48b" data-count="6" data-date="2014-09-25"></rect>
          <rect class="day" width="8" height="8" x="-27" y="50" fill="#ebedf0" data-count="0" data-date="2014-09-26"></rect>
          <rect class="day" width="8" height="8" x="-27" y="60" fill="#ebedf0" data-count="0" data-date="2014-09-27"></rect>
      </g>
      <g transform="translate(429, 0)">
          <rect class="day" width="8" height="8" x="-28" y="0" fill="#c6e48b" data-count="7" data-date="2014-09-28"></rect>
          <rect class="day" width="8" height="8" x="-28" y="10" fill="#c6e48b" data-count="1" data-date="2014-09-29"></rect>
          <rect class="day" width="8" height="8" x="-28" y="20" fill="#c6e48b" data-count="5" data-date="2014-09-30"></rect>
          <rect class="day" width="8" height="8" x="-28" y="30" fill="#c6e48b" data-count="6" data-date="2014-10-01"></rect>
          <rect class="day" width="8" height="8" x="-28" y="40" fill="#c6e48b" data-count="4" data-date="2014-10-02"></rect>
          <rect class="day" width="8" height="8" x="-28" y="50" fill="#ebedf0" data-count="0" data-date="2014-10-03"></rect>
          <rect class="day" width="8" height="8" x="-28" y="60" fill="#ebedf0" data-count="0" data-date="2014-10-04"></rect>
      </g>
      <g transform="translate(440, 0)">
          <rect class="day" width="8" height="8" x="-29" y="0" fill="#ebedf0" data-count="0" data-date="2014-10-05"></rect>
          <rect class="day" width="8" height="8" x="-29" y="10" fill="#c6e48b" data-count="3" data-date="2014-10-06"></rect>
          <rect class="day" width="8" height="8" x="-29" y="20" fill="#c6e48b" data-count="3" data-date="2014-10-07"></rect>
          <rect class="day" width="8" height="8" x="-29" y="30" fill="#c6e48b" data-count="10" data-date="2014-10-08"></rect>
          <rect class="day" width="8" height="8" x="-29" y="40" fill="#c6e48b" data-count="2" data-date="2014-10-09"></rect>
          <rect class="day" width="8" height="8" x="-29" y="50" fill="#c6e48b" data-count="7" data-date="2014-10-10"></rect>
          <rect class="day" width="8" height="8" x="-29" y="60" fill="#ebedf0" data-count="0" data-date="2014-10-11"></rect>
      </g>
      <g transform="translate(451, 0)">
          <rect class="day" width="8" height="8" x="-30" y="0" fill="#ebedf0" data-count="0" data-date="2014-10-12"></rect>
          <rect class="day" width="8" height="8" x="-30" y="10" fill="#c6e48b" data-count="3" data-date="2014-10-13"></rect>
          <rect class="day" width="8" height="8" x="-30" y="20" fill="#c6e48b" data-count="6" data-date="2014-10-14"></rect>
          <rect class="day" width="8" height="8" x="-30" y="30" fill="#c6e48b" data-count="14" data-date="2014-10-15"></rect>
          <rect class="day" width="8" height="8" x="-30" y="40" fill="#c6e48b" data-count="4" data-date="2014-10-16"></rect>
          <rect class="day" width="8" height="8" x="-30" y="50" fill="#c6e48b" data-count="1" data-date="2014-10-17"></rect>
          <rect class="day" width="8" height="8" x="-30" y="60" fill="#c6e48b" data-count="7" data-date="2014-10-18"></rect>
      </g>
      <g transform="translate(462, 0)">
          <rect class="day" width="8" height="8" x="-31" y="0" fill="#ebedf0" data-count="0" data-date="2014-10-19"></rect>
          <rect class="day" width="8" height="8" x="-31" y="10" fill="#c6e48b" data-count="5" data-date="2014-10-20"></rect>
          <rect class="day" width="8" height="8" x="-31" y="20" fill="#c6e48b" data-count="1" data-date="2014-10-21"></rect>
          <rect class="day" width="8" height="8" x="-31" y="30" fill="#c6e48b" data-count="5" data-date="2014-10-22"></rect>
          <rect class="day" width="8" height="8" x="-31" y="40" fill="#c6e48b" data-count="1" data-date="2014-10-23"></rect>
          <rect class="day" width="8" height="8" x="-31" y="50" fill="#ebedf0" data-count="0" data-date="2014-10-24"></rect>
          <rect class="day" width="8" height="8" x="-31" y="60" fill="#ebedf0" data-count="0" data-date="2014-10-25"></rect>
      </g>
      <g transform="translate(473, 0)">
          <rect class="day" width="8" height="8" x="-32" y="0" fill="#ebedf0" data-count="0" data-date="2014-10-26"></rect>
          <rect class="day" width="8" height="8" x="-32" y="10" fill="#c6e48b" data-count="6" data-date="2014-10-27"></rect>
          <rect class="day" width="8" height="8" x="-32" y="20" fill="#c6e48b" data-count="4" data-date="2014-10-28"></rect>
          <rect class="day" width="8" height="8" x="-32" y="30" fill="#c6e48b" data-count="2" data-date="2014-10-29"></rect>
          <rect class="day" width="8" height="8" x="-32" y="40" fill="#c6e48b" data-count="5" data-date="2014-10-30"></rect>
          <rect class="day" width="8" height="8" x="-32" y="50" fill="#c6e48b" data-count="5" data-date="2014-10-31"></rect>
          <rect class="day" width="8" height="8" x="-32" y="60" fill="#c6e48b" data-count="2" data-date="2014-11-01"></rect>
      </g>
      <g transform="translate(484, 0)">
          <rect class="day" width="8" height="8" x="-33" y="0" fill="#ebedf0" data-count="0" data-date="2014-11-02"></rect>
          <rect class="day" width="8" height="8" x="-33" y="10" fill="#c6e48b" data-count="10" data-date="2014-11-03"></rect>
          <rect class="day" width="8" height="8" x="-33" y="20" fill="#c6e48b" data-count="11" data-date="2014-11-04"></rect>
          <rect class="day" width="8" height="8" x="-33" y="30" fill="#239a3b" data-count="50" data-date="2014-11-05"></rect>
          <rect class="day" width="8" height="8" x="-33" y="40" fill="#c6e48b" data-count="4" data-date="2014-11-06"></rect>
          <rect class="day" width="8" height="8" x="-33" y="50" fill="#ebedf0" data-count="0" data-date="2014-11-07"></rect>
          <rect class="day" width="8" height="8" x="-33" y="60" fill="#ebedf0" data-count="0" data-date="2014-11-08"></rect>
      </g>
      <g transform="translate(495, 0)">
          <rect class="day" width="8" height="8" x="-34" y="0" fill="#ebedf0" data-count="0" data-date="2014-11-09"></rect>
          <rect class="day" width="8" height="8" x="-34" y="10" fill="#c6e48b" data-count="3" data-date="2014-11-10"></rect>
          <rect class="day" width="8" height="8" x="-34" y="20" fill="#c6e48b" data-count="7" data-date="2014-11-11"></rect>
          <rect class="day" width="8" height="8" x="-34" y="30" fill="#c6e48b" data-count="5" data-date="2014-11-12"></rect>
          <rect class="day" width="8" height="8" x="-34" y="40" fill="#c6e48b" data-count="8" data-date="2014-11-13"></rect>
          <rect class="day" width="8" height="8" x="-34" y="50" fill="#ebedf0" data-count="0" data-date="2014-11-14"></rect>
          <rect class="day" width="8" height="8" x="-34" y="60" fill="#ebedf0" data-count="0" data-date="2014-11-15"></rect>
      </g>
      <g transform="translate(506, 0)">
          <rect class="day" width="8" height="8" x="-35" y="0" fill="#c6e48b" data-count="2" data-date="2014-11-16"></rect>
          <rect class="day" width="8" height="8" x="-35" y="10" fill="#c6e48b" data-count="4" data-date="2014-11-17"></rect>
          <rect class="day" width="8" height="8" x="-35" y="20" fill="#c6e48b" data-count="1" data-date="2014-11-18"></rect>
          <rect class="day" width="8" height="8" x="-35" y="30" fill="#c6e48b" data-count="1" data-date="2014-11-19"></rect>
          <rect class="day" width="8" height="8" x="-35" y="40" fill="#ebedf0" data-count="0" data-date="2014-11-20"></rect>
          <rect class="day" width="8" height="8" x="-35" y="50" fill="#ebedf0" data-count="0" data-date="2014-11-21"></rect>
          <rect class="day" width="8" height="8" x="-35" y="60" fill="#ebedf0" data-count="0" data-date="2014-11-22"></rect>
      </g>
      <g transform="translate(517, 0)">
          <rect class="day" width="8" height="8" x="-36" y="0" fill="#ebedf0" data-count="0" data-date="2014-11-23"></rect>
          <rect class="day" width="8" height="8" x="-36" y="10" fill="#c6e48b" data-count="1" data-date="2014-11-24"></rect>
          <rect class="day" width="8" height="8" x="-36" y="20" fill="#c6e48b" data-count="4" data-date="2014-11-25"></rect>
          <rect class="day" width="8" height="8" x="-36" y="30" fill="#c6e48b" data-count="3" data-date="2014-11-26"></rect>
          <rect class="day" width="8" height="8" x="-36" y="40" fill="#c6e48b" data-count="1" data-date="2014-11-27"></rect>
          <rect class="day" width="8" height="8" x="-36" y="50" fill="#c6e48b" data-count="2" data-date="2014-11-28"></rect>
          <rect class="day" width="8" height="8" x="-36" y="60" fill="#c6e48b" data-count="1" data-date="2014-11-29"></rect>
      </g>
      <g transform="translate(528, 0)">
          <rect class="day" width="8" height="8" x="-37" y="0" fill="#c6e48b" data-count="4" data-date="2014-11-30"></rect>
          <rect class="day" width="8" height="8" x="-37" y="10" fill="#239a3b" data-count="55" data-date="2014-12-01"></rect>
          <rect class="day" width="8" height="8" x="-37" y="20" fill="#c6e48b" data-count="3" data-date="2014-12-02"></rect>
          <rect class="day" width="8" height="8" x="-37" y="30" fill="#ebedf0" data-count="0" data-date="2014-12-03"></rect>
          <rect class="day" width="8" height="8" x="-37" y="40" fill="#196127" data-count="83" data-date="2014-12-04"></rect>
          <rect class="day" width="8" height="8" x="-37" y="50" fill="#c6e48b" data-count="3" data-date="2014-12-05"></rect>
          <rect class="day" width="8" height="8" x="-37" y="60" fill="#c6e48b" data-count="18" data-date="2014-12-06"></rect>
      </g>
      <g transform="translate(539, 0)">
          <rect class="day" width="8" height="8" x="-38" y="0" fill="#ebedf0" data-count="0" data-date="2014-12-07"></rect>
          <rect class="day" width="8" height="8" x="-38" y="10" fill="#c6e48b" data-count="4" data-date="2014-12-08"></rect>
          <rect class="day" width="8" height="8" x="-38" y="20" fill="#c6e48b" data-count="3" data-date="2014-12-09"></rect>
          <rect class="day" width="8" height="8" x="-38" y="30" fill="#c6e48b" data-count="3" data-date="2014-12-10"></rect>
          <rect class="day" width="8" height="8" x="-38" y="40" fill="#c6e48b" data-count="4" data-date="2014-12-11"></rect>
          <rect class="day" width="8" height="8" x="-38" y="50" fill="#c6e48b" data-count="3" data-date="2014-12-12"></rect>
          <rect class="day" width="8" height="8" x="-38" y="60" fill="#ebedf0" data-count="0" data-date="2014-12-13"></rect>
      </g>
      <g transform="translate(550, 0)">
          <rect class="day" width="8" height="8" x="-39" y="0" fill="#c6e48b" data-count="15" data-date="2014-12-14"></rect>
          <rect class="day" width="8" height="8" x="-39" y="10" fill="#c6e48b" data-count="9" data-date="2014-12-15"></rect>
          <rect class="day" width="8" height="8" x="-39" y="20" fill="#c6e48b" data-count="3" data-date="2014-12-16"></rect>
          <rect class="day" width="8" height="8" x="-39" y="30" fill="#c6e48b" data-count="4" data-date="2014-12-17"></rect>
          <rect class="day" width="8" height="8" x="-39" y="40" fill="#c6e48b" data-count="1" data-date="2014-12-18"></rect>
          <rect class="day" width="8" height="8" x="-39" y="50" fill="#c6e48b" data-count="1" data-date="2014-12-19"></rect>
          <rect class="day" width="8" height="8" x="-39" y="60" fill="#ebedf0" data-count="0" data-date="2014-12-20"></rect>
      </g>
      <g transform="translate(561, 0)">
          <rect class="day" width="8" height="8" x="-40" y="0" fill="#c6e48b" data-count="1" data-date="2014-12-21"></rect>
          <rect class="day" width="8" height="8" x="-40" y="10" fill="#c6e48b" data-count="4" data-date="2014-12-22"></rect>
          <rect class="day" width="8" height="8" x="-40" y="20" fill="#c6e48b" data-count="3" data-date="2014-12-23"></rect>
          <rect class="day" width="8" height="8" x="-40" y="30" fill="#ebedf0" data-count="0" data-date="2014-12-24"></rect>
          <rect class="day" width="8" height="8" x="-40" y="40" fill="#196127" data-count="66" data-date="2014-12-25"></rect>
          <rect class="day" width="8" height="8" x="-40" y="50" fill="#c6e48b" data-count="2" data-date="2014-12-26"></rect>
          <rect class="day" width="8" height="8" x="-40" y="60" fill="#c6e48b" data-count="2" data-date="2014-12-27"></rect>
      </g>
      <g transform="translate(572, 0)">
          <rect class="day" width="8" height="8" x="-41" y="0" fill="#c6e48b" data-count="2" data-date="2014-12-28"></rect>
          <rect class="day" width="8" height="8" x="-41" y="10" fill="#c6e48b" data-count="3" data-date="2014-12-29"></rect>
          <rect class="day" width="8" height="8" x="-41" y="20" fill="#c6e48b" data-count="5" data-date="2014-12-30"></rect>
          <rect class="day" width="8" height="8" x="-41" y="30" fill="#c6e48b" data-count="7" data-date="2014-12-31"></rect>
      </g>
      <text x="21" y="-8" class="month">Jan</text>
      <text x="61" y="-8" class="month">Feb</text>
      <text x="101" y="-8" class="month">Mar</text>
      <text x="151" y="-8" class="month">Apr</text>
      <text x="191" y="-8" class="month">May</text>
      <text x="231" y="-8" class="month">Jun</text>
      <text x="281" y="-8" class="month">Jul</text>
      <text x="321" y="-8" class="month">Aug</text>
      <text x="371" y="-8" class="month">Sep</text>
      <text x="411" y="-8" class="month">Oct</text>
      <text x="451" y="-8" class="month">Nov</text>
      <text x="501" y="-8" class="month">Dec</text>
    <text text-anchor="start" class="wday" dx="-12" dy="8" style="display: none;">Sun</text>
    <text text-anchor="start" class="wday" dx="-12" dy="17">Mon</text>
    <text text-anchor="start" class="wday" dx="-12" dy="32" style="display: none;">Tue</text>
    <text text-anchor="start" class="wday" dx="-12" dy="37">Wed</text>
    <text text-anchor="start" class="wday" dx="-12" dy="57" style="display: none;">Thu</text>
    <text text-anchor="start" class="wday" dx="-12" dy="57">Fri</text>
    <text text-anchor="start" class="wday" dx="-12" dy="81" style="display: none;">Sat</text>
  </g>
</svg>
