<svg height="1536" viewBox="0 0 1536 1536" width="1536" xmlns="http://www.w3.org/2000/svg"><path d="m706.391178 377.85191v245.424785c0 8.862562-3.236939 16.532086-9.71082 23.008574-6.47388 6.476487-14.140317 9.714731-22.99931 9.714731h-170.074345v-231.233446h-183.213406v231.233446h-170.074345c-8.858993 0-16.52543-3.238244-22.99931-9.714731-6.473881-6.476488-9.71082-14.146012-9.71082-23.008574v-245.424785c0-.340868.085182-.85217.255547-1.533905.170366-.681736.255548-1.193037.255548-1.533905l293.880083-242.356976 293.880083 242.356976c.34073.681735.511095 1.704338.511095 3.06781zm113.974363-35.279813-31.687939 37.836321c-2.725844 3.06781-6.303515 4.942582-10.733012 5.624318h-1.533287c-4.429498 0-8.007168-1.193037-10.733012-3.579112l-353.678291-295.0210441-353.6782908 295.0210441c-4.0887664 2.726942-8.1775327 3.91998-12.2662991 3.579112-4.4294971-.681736-8.0071676-2.556508-10.7330117-5.624318l-31.68793937-37.836321c-2.72584407-3.408678-3.91840127-7.413874-3.57767057-12.015589s2.21474828-8.266043 5.62205376-10.992985l367.47787778-306.2696804c10.903376-8.86256158 23.851137-13.2938426 38.84328-13.2938426s27.939904 4.43128102 38.84328 13.2938426l124.707375 104.3055334v-99.7038187c0-4.7721485 1.533287-8.69212784 4.599862-11.75993766s6.984976-4.60171473 11.755203-4.60171473h98.130393c4.770227 0 8.688629 1.53390491 11.755203 4.60171473 3.066575 3.06780982 4.599862 6.98778916 4.599862 11.75993766v208.6110677l111.92998 93.056898c3.407305 2.726942 5.281323 6.39127 5.622054 10.992985.34073 4.601715-.851827 8.606911-3.577671 12.015589z" fill="#fff" transform="translate(356 440)"/></svg>